<svg width="24" height="24" viewBox="0 0 24 24" fill="none" xmlns="http://www.w3.org/2000/svg">
    <path d="M11.0859 4V13.65C11.2553 13.64 11.4243 13.635 11.5929 13.635C11.7616 13.635 11.9306 13.64 12.0999 13.65V9.905L17.6789 7.043L11.0859 4Z" fill="#29ABE2" />
    <path d="M18.1509 17.994C18.0042 17.3042 17.7116 16.6538 17.2928 16.0863C16.8741 15.5189 16.3388 15.0476 15.7229 14.704C14.6183 14.0627 13.3757 13.6964 12.0999 13.636V16.672H11.0859V13.636C9.81011 13.6964 8.56752 14.0627 7.46292 14.704C6.84722 15.0478 6.31208 15.5192 5.89334 16.0866C5.4746 16.654 5.18193 17.3043 5.03492 17.994C4.99749 18.3996 4.99014 18.8073 5.01292 19.214H18.1729C18.195 18.8073 18.1876 18.3996 18.1509 17.994V17.994Z" fill="#29ABE2" />
</svg>