<svg width="24" height="24" viewBox="0 0 24 24" fill="none" xmlns="http://www.w3.org/2000/svg">
    <g clip-path="url(#clip0)">
        <path fill-rule="evenodd" clip-rule="evenodd" d="M19.335 5H13.291L12.907 5.165L12.192 5.865L11.477 5.165L11.093 5H5.05L4.501 5.549V16.539L5.05 17.088H10.862L11.807 18.022H12.576L13.521 17.088H19.334L19.883 16.539V5.549L19.335 5ZM11.643 16.341L11.443 16.154L11.091 15.989H5.599V6.1H10.862L11.675 6.913L11.642 16.342L11.643 16.341ZM18.786 15.989H13.291L12.907 16.154L12.75 16.3V6.868L13.519 6.099H18.783L18.786 15.989ZM9.995 8.3H6.695V9.4H9.995V8.3ZM9.995 12.7H6.695V13.8H9.995V12.7ZM6.695 10.5H9.995V11.6H6.695V10.5ZM17.687 8.3H14.387V9.4H17.687V8.3ZM14.387 10.5H17.687V11.6H14.387V10.5ZM14.387 12.7H17.687V13.8H14.387V12.7Z" fill="#29ABE2" />
    </g>
    <defs>
        <clipPath id="clip0">
            <rect width="15.384" height="13.022" fill="white" transform="translate(4.5 5)" />
        </clipPath>
    </defs>
</svg>